<svg width="162" height="160" viewBox="0 0 162 160" fill="none" xmlns="http://www.w3.org/2000/svg">
<path d="M159.443 47.8019L161.438 47.9439L161.584 45.8917L159.529 45.8038L159.443 47.8019ZM151.652 157.312L151.51 159.307L153.505 159.449L153.647 157.454L151.652 157.312ZM42.1419 147.515C41.0402 147.437 40.0834 148.266 40.005 149.368C39.9267 150.47 40.7563 151.427 41.8581 151.505L42.1419 147.515ZM2 2V0H0V2H2ZM140 2H142V0H140V2ZM140 140V142H142V140H140ZM2 140H0V142H2V140ZM34 113.5L32.2921 112.459L30.4392 115.5H34V113.5ZM53.5 81.5L54.9519 80.1245L53.1531 78.2258L51.7921 80.4593L53.5 81.5ZM71.5 100.5L70.0481 101.875L72.057 103.996L73.3075 101.356L71.5 100.5ZM94 53L95.9554 52.5798L94.7167 46.8151L92.1925 52.1438L94 53ZM107 113.5V115.5H109.475L108.955 113.08L107 113.5ZM157.449 47.66L149.657 157.17L153.647 157.454L161.438 47.9439L157.449 47.66ZM151.794 155.317L42.1419 147.515L41.8581 151.505L151.51 159.307L151.794 155.317ZM150.304 49.4126L159.358 49.8001L159.529 45.8038L150.475 45.4163L150.304 49.4126ZM2 4H140V0H2V4ZM138 2V140H142V2H138ZM140 138H2V142H140V138ZM4 140V2H0V140H4ZM43 29.5C43 35.299 38.299 40 32.5 40V44C40.5081 44 47 37.5081 47 29.5H43ZM32.5 40C26.701 40 22 35.299 22 29.5H18C18 37.5081 24.4919 44 32.5 44V40ZM22 29.5C22 23.701 26.701 19 32.5 19V15C24.4919 15 18 21.4919 18 29.5H22ZM32.5 19C38.299 19 43 23.701 43 29.5H47C47 21.4919 40.5081 15 32.5 15V19ZM35.7079 114.541L55.2079 82.5407L51.7921 80.4593L32.2921 112.459L35.7079 114.541ZM52.0481 82.8755L70.0481 101.875L72.9519 99.1245L54.9519 80.1245L52.0481 82.8755ZM73.3075 101.356L95.8075 53.8562L92.1925 52.1438L69.6925 99.6438L73.3075 101.356ZM92.0446 53.4202L105.045 113.92L108.955 113.08L95.9554 52.5798L92.0446 53.4202ZM107 111.5H34V115.5H107V111.5Z" fill="white"/>
</svg>
