<svg width="390" height="85" viewBox="0 0 390 85" fill="none" xmlns="http://www.w3.org/2000/svg">
<path d="M52 25.5C52 20.8056 55.8056 17 60.5 17H250.5C255.194 17 259 20.8056 259 25.5C259 30.1944 255.194 34 250.5 34H60.5C55.8056 34 52 30.1944 52 25.5Z" fill="#FFE66D"/>
<path d="M84 42.5C84 37.8056 87.8056 34 92.5 34H222.5C227.194 34 231 37.8056 231 42.5C231 47.1944 227.194 51 222.5 51H92.5C87.8056 51 84 47.1944 84 42.5Z" fill="#FFE66D"/>
<path d="M29 59.5C29 54.8056 32.8056 51 37.5 51H167.5C172.194 51 176 54.8056 176 59.5C176 64.1944 172.194 68 167.5 68H37.5C32.8056 68 29 64.1944 29 59.5Z" fill="#FFE66D"/>
<path d="M42 76.5C42 71.8056 45.8056 68 50.5 68H180.5C185.194 68 189 71.8056 189 76.5C189 81.1944 185.194 85 180.5 85H50.5C45.8056 85 42 81.1944 42 76.5Z" fill="#FFE66D"/>
<path d="M152 59.5C152 54.8056 155.806 51 160.5 51H258.5C263.194 51 267 54.8056 267 59.5C267 64.1944 263.194 68 258.5 68H160.5C155.806 68 152 64.1944 152 59.5Z" fill="#FFE66D"/>
<path d="M179 42.5C179 37.8056 182.806 34 187.5 34H269.5C274.194 34 278 37.8056 278 42.5C278 47.1944 274.194 51 269.5 51H187.5C182.806 51 179 47.1944 179 42.5Z" fill="#FFE66D"/>
<path d="M240 25.5C240 20.8056 243.806 17 248.5 17H381.5C386.194 17 390 20.8056 390 25.5C390 30.1944 386.194 34 381.5 34H248.5C243.806 34 240 30.1944 240 25.5Z" fill="#FFF8B8"/>
<path d="M252 59.5C252 54.8056 255.806 51 260.5 51H371.5C376.194 51 380 54.8056 380 59.5C380 64.1944 376.194 68 371.5 68H260.5C255.806 68 252 64.1944 252 59.5Z" fill="#FFF8B8"/>
<path d="M116 8.5C116 3.80558 119.806 0 124.5 0H291.5C296.194 0 300 3.80558 300 8.5C300 13.1944 296.194 17 291.5 17H124.5C119.806 17 116 13.1944 116 8.5Z" fill="#FFE66D"/>
<path d="M28 25.5C28 20.8056 31.8056 17 36.5 17H147.5C152.194 17 156 20.8056 156 25.5C156 30.1944 152.194 34 147.5 34H36.5C31.8056 34 28 30.1944 28 25.5Z" fill="#FFF8B8"/>
<path d="M0 59.5C0 54.8056 3.80558 51 8.5 51H119.5C124.194 51 128 54.8056 128 59.5C128 64.1944 124.194 68 119.5 68H8.5C3.80558 68 0 64.1944 0 59.5Z" fill="#FFF8B8"/>
<path d="M176 76.5C176 71.8056 179.806 68 184.5 68H283.5C288.194 68 292 71.8056 292 76.5C292 81.1944 288.194 85 283.5 85H184.5C179.806 85 176 81.1944 176 76.5Z" fill="#FFE66D"/>
</svg>
